<svg xmlns="http://www.w3.org/2000/svg" xmlns:xlink="http://www.w3.org/1999/xlink" width="266.353" height="79" viewBox="0 0 266.353 79"><defs><style>.a{fill:#a6a6a6;}.b,.i,.j{fill:#fff;}.c{fill:url(#a);}.d{fill:url(#b);}.e{fill:url(#c);}.f{fill:url(#d);}.g{opacity:0.2;}.g,.h,.i{isolation:isolate;}.h{opacity:0.12;}.i{opacity:0.25;}.j{stroke:#fff;stroke-miterlimit:10;stroke-width:0.2px;}</style><linearGradient id="a" x1="0.915" y1="6.614" x2="-0.383" y2="5.945" gradientUnits="objectBoundingBox"><stop offset="0" stop-color="#00a0ff"/><stop offset="0.007" stop-color="#00a1ff"/><stop offset="0.26" stop-color="#00beff"/><stop offset="0.512" stop-color="#00d2ff"/><stop offset="0.76" stop-color="#00dfff"/><stop offset="1" stop-color="#00e3ff"/></linearGradient><linearGradient id="b" x1="1.076" y1="17.098" x2="-1.305" y2="17.098" gradientUnits="objectBoundingBox"><stop offset="0" stop-color="#ffe000"/><stop offset="0.409" stop-color="#ffbd00"/><stop offset="0.775" stop-color="orange"/><stop offset="1" stop-color="#ff9c00"/></linearGradient><linearGradient id="c" x1="0.862" y1="10.863" x2="-0.501" y2="9.093" gradientUnits="objectBoundingBox"><stop offset="0" stop-color="#ff3a44"/><stop offset="1" stop-color="#c31162"/></linearGradient><linearGradient id="d" x1="-0.188" y1="13.583" x2="0.421" y2="12.793" gradientUnits="objectBoundingBox"><stop offset="0" stop-color="#32a071"/><stop offset="0.068" stop-color="#2da771"/><stop offset="0.476" stop-color="#15cf74"/><stop offset="0.801" stop-color="#06e775"/><stop offset="1" stop-color="#00f076"/></linearGradient></defs><g transform="translate(-10 -10)"><rect width="266" height="79" rx="10" transform="translate(10 10)"/><g transform="translate(10 10)"><path class="a" d="M266.488,11.578a8.3,8.3,0,0,1,8.287,8.287v59.19a8.3,8.3,0,0,1-8.287,8.287H19.865a8.3,8.3,0,0,1-8.287-8.287V19.865a8.3,8.3,0,0,1,8.287-8.287H266.488m0-1.578H19.865A9.894,9.894,0,0,0,10,19.865v59.19a9.894,9.894,0,0,0,9.865,9.865H266.488a9.894,9.894,0,0,0,9.865-9.865V19.865A9.894,9.894,0,0,0,266.488,10Z" transform="translate(-10 -10)"/></g><path class="b" d="M104.5,36.33a8.391,8.391,0,1,0,8.423,8.391A8.271,8.271,0,0,0,104.5,36.33Zm0,13.475a4.854,4.854,0,0,1-4.737-5.084,4.748,4.748,0,1,1,9.472,0A4.853,4.853,0,0,1,104.5,49.805ZM86.124,36.33a8.391,8.391,0,1,0,8.423,8.391A8.271,8.271,0,0,0,86.124,36.33Zm0,13.475a4.854,4.854,0,0,1-4.737-5.084,4.748,4.748,0,1,1,9.472,0A4.854,4.854,0,0,1,86.124,49.805ZM64.265,38.9v3.559h8.517a7.429,7.429,0,0,1-1.937,4.481,8.722,8.722,0,0,1-6.58,2.606,9.472,9.472,0,0,1,0-18.943,9.075,9.075,0,0,1,6.42,2.543L73.2,30.64a12.42,12.42,0,0,0-8.932-3.593,13.034,13.034,0,1,0,0,26.065,11.909,11.909,0,0,0,9.09-3.656,11.763,11.763,0,0,0,3.084-8.328,11.5,11.5,0,0,0-.191-2.224Zm89.392,2.764c-.7-1.874-2.829-5.339-7.184-5.339-4.323,0-7.914,3.4-7.914,8.391a8.211,8.211,0,0,0,8.328,8.391,8.345,8.345,0,0,0,6.992-3.719l-2.861-1.908a4.794,4.794,0,0,1-4.131,2.32,4.271,4.271,0,0,1-4.07-2.541l11.22-4.642Zm-11.443,2.8a4.6,4.6,0,0,1,4.386-4.895,3.246,3.246,0,0,1,3.115,1.78ZM133.093,52.6h3.686V27.937h-3.686Zm-6.041-14.4h-.126a5.816,5.816,0,0,0-4.417-1.874,8.4,8.4,0,0,0,0,16.782,5.717,5.717,0,0,0,4.417-1.908h.126v1.209c0,3.21-1.715,4.927-4.481,4.927a4.644,4.644,0,0,1-4.228-2.989l-3.21,1.336a8,8,0,0,0,7.438,4.958c4.323,0,7.979-2.543,7.979-8.74V36.837h-3.5Zm-4.226,11.6a4.814,4.814,0,0,1-4.672-5.053,4.854,4.854,0,0,1,4.672-5.118c2.512,0,4.481,2.162,4.481,5.118C127.306,47.677,125.337,49.805,122.825,49.805Zm48.1-21.867h-8.821V52.6h3.68V43.259h5.142c4.08,0,8.091-2.956,8.091-7.661S175.009,27.939,170.928,27.939Zm.095,11.887h-5.236V31.372h5.236a4.228,4.228,0,1,1,0,8.454Zm22.752-3.542c-2.665,0-5.428,1.174-6.57,3.774l3.269,1.365a3.487,3.487,0,0,1,3.364-1.809c1.9,0,3.839,1.142,3.871,3.175v.253a8.144,8.144,0,0,0-3.839-.951c-3.522,0-7.109,1.936-7.109,5.552,0,3.3,2.888,5.428,6.124,5.428a5.2,5.2,0,0,0,4.7-2.413h.126v1.9h3.553V43.105C201.263,38.727,198,36.285,193.776,36.285ZM193.332,49.8c-1.207,0-2.888-.6-2.888-2.093,0-1.9,2.093-2.634,3.9-2.634a6.568,6.568,0,0,1,3.364.825A4.463,4.463,0,0,1,193.332,49.8ZM214.21,36.823l-4.22,10.694h-.126l-4.38-10.694h-3.966l6.568,14.945-3.745,8.314h3.839L218.3,36.823ZM181.05,52.6h3.682V27.939H181.05Z" transform="translate(39.933 16.587)"/><g transform="translate(29.677 24.088)"><path class="c" d="M20.885,17.609a3.96,3.96,0,0,0-.912,2.772V64.016a3.956,3.956,0,0,0,.912,2.772l.146.142L45.474,42.486V41.91L21.031,17.465Z" transform="translate(-19.973 -16.825)"/><path class="d" d="M41.046,42.6,32.9,34.451v-.576l8.15-8.15.183.107,9.654,5.485c2.756,1.567,2.756,4.129,0,5.7L41.232,42.5Z" transform="translate(-7.397 -8.789)"/><path class="e" d="M53.358,38.335,45.024,30,20.435,54.59c.91.963,2.411,1.081,4.1.12L53.358,38.335" transform="translate(-19.523 -4.627)"/><path class="f" d="M53.358,34.18,24.537,17.8c-1.691-.961-3.192-.842-4.1.12L45.024,42.514Z" transform="translate(-19.523 -17.14)"/><g transform="translate(0 33.524)"><path class="g" d="M53.175,34.132,24.537,50.4c-1.6.912-3.034.85-3.954.022h0l-.148.146h0l.146.144,0,0c.919.829,2.352.89,3.954-.022L53.358,34.315Z" transform="translate(-19.523 -34.132)"/><path class="h" d="M20.885,43.685a3.956,3.956,0,0,1-.912-2.772v.29a3.951,3.951,0,0,0,.912,2.77l.148-.146Z" transform="translate(-19.973 -27.534)"/></g><path class="h" d="M46.866,32.562l-9.837,5.589.183.183,9.654-5.485A3.463,3.463,0,0,0,48.934,30h0A3.671,3.671,0,0,1,46.866,32.562Z" transform="translate(-3.378 -4.627)"/><path class="i" d="M24.986,18.092,63.462,39.953a3.671,3.671,0,0,1,2.068,2.561h0a3.458,3.458,0,0,0-2.068-2.849L24.986,17.8c-2.758-1.567-5.013-.264-5.013,2.892v.29C19.973,17.828,22.228,16.526,24.986,18.092Z" transform="translate(-19.973 -17.14)"/></g><g transform="translate(91.372 23.811)"><path class="j" d="M56.071,28.838H54.548V18.454h-3.3V17h8.135v1.454H56.071Z" transform="translate(-51.243 -17)"/><path class="j" d="M63.249,18.454h-5.39v3.755h4.861v1.421H57.859v3.755h5.39v1.454H56.338V17h6.911Z" transform="translate(-46.286 -17)"/><path class="j" d="M61.047,28.838V17h1.521l4.118,7.207h.065L70.869,17h1.519V28.838H70.869V21.812l.065-1.985h-.065l-3.7,6.5h-.894l-3.7-6.5H62.5l.065,1.985v7.026Z" transform="translate(-41.704 -17)"/><path class="j" d="M72.417,29.1a4.15,4.15,0,0,1-3.167-1.29,4.717,4.717,0,0,1-1.213-3.372V17h1.519v7.507a3.4,3.4,0,0,0,.736,2.273,3.037,3.037,0,0,0,4.248,0,3.387,3.387,0,0,0,.738-2.273V17H76.8v7.44a4.78,4.78,0,0,1-1.184,3.38A4.132,4.132,0,0,1,72.417,29.1Z" transform="translate(-34.903 -17)"/><path class="j" d="M82.479,17v.065l-4.4,5.076,4.7,6.631v.065H80.91l-3.853-5.522-1.819,2.1v3.421H73.717V17h1.521v6.1h.067L80.514,17Z" transform="translate(-29.376 -17)"/><path class="j" d="M78.594,28.838,83.057,17h1.72L89.24,28.838H87.555l-1.14-3.208H81.437l-1.158,3.208Zm3.356-4.631h3.934l-1.934-5.339h-.067Z" transform="translate(-24.631 -17)"/><path class="j" d="M84.862,28.838V17h1.853l5.753,9.208h.065l-.065-2.281V17h1.521V28.838H92.4l-6.02-9.656h-.065l.065,2.283v7.373Z" transform="translate(-18.532 -17)"/><path class="j" d="M92.873,28.838V17h3.62a5.887,5.887,0,0,1,4.366,1.645,5.8,5.8,0,0,1,1.636,4.273,5.8,5.8,0,0,1-1.636,4.273,5.887,5.887,0,0,1-4.366,1.645Zm1.521-1.454h2.1a4.432,4.432,0,0,0,3.248-1.176,4.383,4.383,0,0,0,1.2-3.289,4.117,4.117,0,0,0-4.447-4.465h-2.1Z" transform="translate(-10.738 -17)"/><path class="j" d="M98.831,28.838V17h1.521V28.838Z" transform="translate(-4.941 -17)"/></g></g></svg>