<?xml version="1.0" encoding="UTF-8"?>
<!DOCTYPE svg PUBLIC "-//W3C//DTD SVG 1.1//EN" "http://www.w3.org/Graphics/SVG/1.1/DTD/svg11.dtd">
<!-- Creator: CorelDRAW X7 -->
<svg xmlns="http://www.w3.org/2000/svg" xml:space="preserve" width="297mm" height="210mm" version="1.1" style="shape-rendering:geometricPrecision; text-rendering:geometricPrecision; image-rendering:optimizeQuality; fill-rule:evenodd; clip-rule:evenodd"
viewBox="0 0 29700 21000"
 xmlns:xlink="http://www.w3.org/1999/xlink">
 <defs>
  <style type="text/css">
   <![CDATA[
    .fil5 {fill:none}
    .fil9 {fill:#006F3E}
    .fil15 {fill:#148293}
    .fil10 {fill:#2895E8}
    .fil14 {fill:#308031}
    .fil16 {fill:#4360B9}
    .fil11 {fill:#5E2C8A}
    .fil17 {fill:#AB3E6D}
    .fil8 {fill:#F1C304}
    .fil7 {fill:#F29C10}
    .fil13 {fill:#F2AF0A}
    .fil12 {fill:#F67530}
    .fil6 {fill:#F94F4F}
    .fil0 {fill:white}
    .fil1 {fill:#5E2C8A;fill-rule:nonzero}
    .fil4 {fill:#D31F2A;fill-rule:nonzero}
    .fil2 {fill:#F1C304;fill-rule:nonzero}
    .fil3 {fill:white;fill-rule:nonzero}
   ]]>
  </style>
 </defs>
 <g id="Layer_x0020_1">
  <metadata id="CorelCorpID_0Corel-Layer"/>
  <polygon class="fil0" points="3799,11185 3559,10771 3799,10356 4038,10771 "/>
  <polygon class="fil0" points="3799,10978 3679,10771 3799,10563 3918,10771 "/>
  <g id="_1786202720448">
   <path class="fil1" d="M4107 11725l-231 -399 0 0 -230 -399 -42 -72 42 -71 230 -400 231 -399 41 -71 83 0 460 0 461 0 83 0 41 71 231 399 0 1 230 399 41 72 -41 71 -230 399 -231 399 -41 72 -83 0 -461 0 -460 0 -83 0 -41 -72zm17 -542l0 0 190 327 377 0 378 0 190 -327 189 -328 -189 -327 0 0 -190 -328 -378 0 -377 0 -190 328 -189 328 189 327z"/>
   <path class="fil2" d="M2584 11725l-230 -399 0 0 -230 -399 -42 -72 42 -71 230 -399 0 0 230 -399 42 -72 82 0 461 0 461 0 83 0 41 71 230 399 0 1 231 399 41 72 -41 71 -231 399 0 0 -230 399 -41 72 -83 0 -461 0 -461 0 -83 0 -41 -72zm18 -542l0 0 189 327 378 0 378 0 189 -327 0 0 189 -328 -188 -327 -1 0 -189 -328 -378 0 -378 0 -189 328 0 0 -189 328 189 327z"/>
   <path class="fil3" d="M4054 10264l301 520 41 72 -41 71 -301 521 -124 214 -124 -215 -300 -520 -41 -72 41 -71 300 -520 124 -215 124 215zm11 591l-135 -234 -135 234 135 234 135 -234z"/>
   <polygon class="fil4" points="4042,10557 4177,10791 4214,10855 4177,10920 4042,11154 3930,11347 3819,11154 3684,10920 3647,10855 3684,10791 3819,10557 3930,10364 "/>
  </g>
  <path class="fil5" d="M4219 6613l1575 909 1575 910c191,110 300,299 300,519l0 1820 0 1819c0,220 -109,409 -300,519l-1575 910 -1575 909c-191,111 -410,111 -601,0l-1575 -909 -1575 -910c-191,-110 -300,-299 -300,-519l0 -1819 0 -1820c0,-220 109,-409 300,-519l1575 -910 1575 -909c191,-111 410,-111 601,0z"/>
  <line class="fil5" x1="6201" y1="9518" x2="7669" y2= "10366" />
  <line class="fil5" x1="3962" y1="8225" x2="5487" y2= "7345" />
  <polyline class="fil5" points="6201,9518 6201,12104 6201,13784 "/>
  <line class="fil5" x1="3962" y1="13397" x2="2464" y2= "14262" />
  <polyline class="fil5" points="168,11206 1723,12104 5417,14237 "/>
  <line class="fil5" x1="1723" y1="9518" x2="1723" y2= "7707" />
  <line class="fil5" x1="7669" y1="11256" x2="3962" y2= "13397" />
  <line class="fil5" x1="1723" y1="9518" x2="1723" y2= "13834" />
  <line class="fil5" x1="3962" y1="8225" x2="168" y2= "10416" />
  <line class="fil5" x1="6201" y1="9518" x2="2394" y2= "7320" />
  <line class="fil5" x1="6201" y1="9518" x2="6201" y2= "7757" />
  <polygon class="fil6" points="1723,9518 3962,8225 2394,7320 2043,7522 1723,7707 "/>
  <polygon class="fil7" points="6201,9518 6201,7757 5794,7522 5487,7345 3962,8225 "/>
  <polygon class="fil8" points="7669,10366 6201,9518 6201,12104 7669,11256 7669,10771 "/>
  <polygon class="fil9" points="6201,12104 3962,13397 5417,14237 5794,14019 6201,13784 "/>
  <polygon class="fil10" points="3962,13397 1723,12104 1723,13834 2043,14019 2464,14262 "/>
  <polygon class="fil11" points="1723,12104 1723,9518 168,10416 168,10771 168,11206 "/>
  <path class="fil12" d="M2394 7320l1568 905 1525 -880 -1268 -732c-191,-111 -410,-111 -601,0l-1224 707z"/>
  <path class="fil13" d="M6201 7757l0 1761 1468 848 0 -1415c0,-220 -109,-409 -300,-519l-1168 -675z"/>
  <path class="fil14" d="M7669 11256l-1468 848 0 1680 1168 -675c191,-110 300,-299 300,-519l0 -1334z"/>
  <path class="fil15" d="M5417 14237l-1455 -840 -1498 865 1154 666c191,111 410,111 601,0l1198 -691z"/>
  <path class="fil16" d="M1723 13834l0 -1730 -1555 -898 0 1384c0,220 109,409 300,519l1255 725z"/>
  <path class="fil17" d="M168 10416l1555 -898 0 -1811 -1255 725c-191,110 -300,299 -300,519l0 1465z"/>
  <path class="fil4" d="M11666 9476l0 -916 -1841 0c-332,0 -600,268 -600,600l0 316 763 0 0 2693c0,29 -24,53 -54,53l-709 0 0 916 1842 0c330,0 599,-269 599,-601l0 -315 -763 0 0 -2694c0,-29 24,-52 53,-52l710 0z"/>
  <path id="1" class="fil4" d="M13337 8560c-340,0 -615,275 -615,614l0 3964 916 0 0 -1779c0,-29 23,-52 53,-52l558 0 0 1831 299 0c341,0 616,-276 616,-616l0 -3962 -1827 0zm912 1831l-611 0 0 -864c0,-28 23,-51 53,-51l558 0 0 915z"/>
  <path id="2" class="fil4" d="M17136 12222l0 -2701c0,-26 20,-45 46,-45l1479 0 0 -916 -1825 0c-340,0 -616,276 -616,616l0 3962 1826 0c340,0 615,-276 615,-616l0 -2131 -1220 0 0 916 259 0c26,0 46,19 46,45l0 870 -610 0z"/>
  <path id="3" class="fil4" d="M20320 8560c-333,0 -602,269 -602,602l0 3375c0,332 268,601 600,601l1238 0c333,0 603,-270 603,-603l0 -3367c0,-336 -272,-608 -608,-608l-1231 0zm779 3662l-320 0c-81,0 -145,-65 -145,-145l0 -2451c0,-83 67,-150 150,-150l315 0c79,0 145,64 145,145l0 2456c0,80 -66,145 -145,145z"/>
  <path id="4" class="fil4" d="M23817 8560c-332,0 -602,269 -602,601l0 3977 304 0c338,0 612,-274 612,-613l0 -1211 611 1824 915 0 -614 -1831 118 0c274,0 496,-223 496,-497l0 -2250 -1840 0zm372 916l553 0 0 915 -611 0 0 -857c0,-33 25,-58 58,-58l0 0z"/>
  <path id="5" class="fil4" d="M27328 8560c-340,0 -615,275 -615,614l0 3964 916 0 0 -1779c0,-29 23,-52 52,-52l558 0 0 1831 299 0c341,0 616,-276 616,-616l0 -3962 -1826 0zm911 1831l-610 0 0 -864c0,-28 23,-51 52,-51l558 0 0 915z"/>
 </g>
</svg>
